<svg width="291" height="292" viewBox="0 0 291 292" fill="none" xmlns="http://www.w3.org/2000/svg">
<mask id="mask0_573_3" style="mask-type:luminance" maskUnits="userSpaceOnUse" x="0" y="89" width="84" height="60">
<path d="M0 89.7865H83.4063V148.453H0V89.7865Z" fill="white"/>
</mask>
<g mask="url(#mask0_573_3)">
<path d="M7.76563 148.078H59.8021C61.8542 148.078 63.5156 146.432 63.5156 144.375V139.172C63.5156 123.719 70.6875 109.927 81.875 100.958C84.0052 99.25 83.7917 95.8594 81.3229 94.7032C75.7865 92.1094 69.6146 90.6615 63.1198 90.6615H43.2135C19.4063 90.6615 0.109375 109.958 0.109375 133.755V140.438C0.109375 144.662 3.53646 148.078 7.76563 148.078Z" fill="#179B5B"/>
</g>
<path d="M19.1978 51.2188C19.1978 69.974 34.4061 85.1823 53.1665 85.1823C71.9269 85.1823 87.1353 69.974 87.1353 51.2188C87.1353 32.4636 71.9269 17.2604 53.1665 17.2604C34.4061 17.2604 19.1978 32.4636 19.1978 51.2188Z" fill="#179B5B"/>
<mask id="mask1_573_3" style="mask-type:luminance" maskUnits="userSpaceOnUse" x="206" y="89" width="85" height="60">
<path d="M206.073 89.7865H290.672V148.453H206.073V89.7865Z" fill="white"/>
</mask>
<g mask="url(#mask1_573_3)">
<path d="M247.458 90.6615H227.516C220.74 90.6615 214.297 92.2448 208.589 95.0521C206.135 96.2605 205.719 99.5521 207.859 101.292C218.812 110.26 225.818 123.901 225.818 139.172V144.375C225.818 146.432 227.484 148.078 229.526 148.078H282.906C287.135 148.078 290.568 144.662 290.568 140.438V133.755C290.568 109.958 271.266 90.6615 247.458 90.6615Z" fill="#179B5B"/>
</g>
<path d="M237.495 17.2604C218.739 17.2604 203.526 32.4688 203.526 51.2188C203.526 69.974 218.739 85.1771 237.495 85.1771C256.265 85.1771 271.463 69.974 271.463 51.2188C271.463 32.4688 256.265 17.2604 237.495 17.2604Z" fill="#179B5B"/>
<mask id="mask2_573_3" style="mask-type:luminance" maskUnits="userSpaceOnUse" x="99" y="0" width="92" height="90">
<path d="M99.4062 0H190.073V89.7865H99.4062V0Z" fill="white"/>
</mask>
<g mask="url(#mask2_573_3)">
<path d="M144.667 89.1771C169.307 89.1771 189.271 69.2188 189.271 44.5938C189.271 19.9688 169.307 0.00524902 144.667 0.00524902C120.031 0.00524902 100.062 19.9688 100.062 44.5938C100.062 69.2188 120.031 89.1771 144.667 89.1771Z" fill="#179B5B"/>
</g>
<mask id="mask3_573_3" style="mask-type:luminance" maskUnits="userSpaceOnUse" x="74" y="95" width="142" height="77">
<path d="M74.0728 95.1198H215.406V171.802H74.0728V95.1198Z" fill="white"/>
</mask>
<g mask="url(#mask3_573_3)">
<path d="M74.9893 144.219V171.422C74.9893 171.635 75.1507 171.802 75.3538 171.802H213.979C214.177 171.802 214.343 171.635 214.343 171.422V144.219C214.343 117.813 192.916 96.3959 166.5 96.3959H122.838C96.4111 96.3959 74.9893 117.813 74.9893 144.219Z" fill="#179B5B"/>
</g>
<path d="M10.3816 201.84C10.3816 199.067 10.9549 196.6 12.1016 194.44C13.2749 192.253 14.9282 190.56 17.0616 189.36C19.1949 188.133 21.6482 187.52 24.4216 187.52C27.9416 187.52 30.9016 188.467 33.3016 190.36C35.7016 192.227 37.2482 194.773 37.9416 198H29.5016C28.9949 196.933 28.2882 196.12 27.3816 195.56C26.5016 195 25.4749 194.72 24.3016 194.72C22.4882 194.72 21.0349 195.373 19.9416 196.68C18.8749 197.96 18.3416 199.68 18.3416 201.84C18.3416 204.027 18.8749 205.773 19.9416 207.08C21.0349 208.36 22.4882 209 24.3016 209C25.4749 209 26.5016 208.72 27.3816 208.16C28.2882 207.6 28.9949 206.787 29.5016 205.72H37.9416C37.2482 208.947 35.7016 211.507 33.3016 213.4C30.9016 215.267 27.9416 216.2 24.4216 216.2C21.6482 216.2 19.1949 215.6 17.0616 214.4C14.9282 213.173 13.2749 211.48 12.1016 209.32C10.9549 207.133 10.3816 204.64 10.3816 201.84ZM52.0941 216.28C49.8541 216.28 47.8407 215.813 46.0541 214.88C44.2941 213.947 42.9074 212.613 41.8941 210.88C40.8807 209.147 40.3741 207.107 40.3741 204.76C40.3741 202.44 40.8807 200.413 41.8941 198.68C42.9341 196.947 44.3341 195.613 46.0941 194.68C47.8807 193.747 49.8941 193.28 52.1341 193.28C54.3741 193.28 56.3741 193.747 58.1341 194.68C59.9207 195.613 61.3207 196.947 62.3341 198.68C63.3741 200.413 63.8941 202.44 63.8941 204.76C63.8941 207.08 63.3741 209.12 62.3341 210.88C61.3207 212.613 59.9207 213.947 58.1341 214.88C56.3474 215.813 54.3341 216.28 52.0941 216.28ZM52.0941 209.48C53.1874 209.48 54.0941 209.08 54.8141 208.28C55.5607 207.453 55.9341 206.28 55.9341 204.76C55.9341 203.24 55.5607 202.08 54.8141 201.28C54.0941 200.48 53.2007 200.08 52.1341 200.08C51.0674 200.08 50.1741 200.48 49.4541 201.28C48.7341 202.08 48.3741 203.24 48.3741 204.76C48.3741 206.307 48.7207 207.48 49.4141 208.28C50.1074 209.08 51.0007 209.48 52.0941 209.48ZM96.4038 193.36C99.2304 193.36 101.444 194.213 103.044 195.92C104.67 197.627 105.484 199.96 105.484 202.92V216H97.6438V203.96C97.6438 202.76 97.3104 201.827 96.6438 201.16C95.9771 200.493 95.0704 200.16 93.9238 200.16C92.7771 200.16 91.8704 200.493 91.2038 201.16C90.5371 201.827 90.2038 202.76 90.2038 203.96V216H82.3638V203.96C82.3638 202.76 82.0304 201.827 81.3638 201.16C80.7238 200.493 79.8304 200.16 78.6838 200.16C77.5104 200.16 76.5904 200.493 75.9238 201.16C75.2571 201.827 74.9238 202.76 74.9238 203.96V216H67.0838V193.56H74.9238V196.52C75.6171 195.56 76.5104 194.8 77.6038 194.24C78.7238 193.653 80.0038 193.36 81.4438 193.36C83.0971 193.36 84.5638 193.72 85.8438 194.44C87.1504 195.16 88.1771 196.173 88.9238 197.48C89.7238 196.253 90.7771 195.267 92.0838 194.52C93.3904 193.747 94.8304 193.36 96.4038 193.36ZM132.739 193.56V216H124.859V212.8C124.192 213.813 123.272 214.64 122.099 215.28C120.926 215.893 119.579 216.2 118.059 216.2C115.446 216.2 113.379 215.347 111.859 213.64C110.366 211.907 109.619 209.56 109.619 206.6V193.56H117.419V205.6C117.419 206.88 117.752 207.893 118.419 208.64C119.112 209.36 120.019 209.72 121.139 209.72C122.286 209.72 123.192 209.36 123.859 208.64C124.526 207.893 124.859 206.88 124.859 205.6V193.56H132.739ZM151.881 193.36C154.468 193.36 156.521 194.227 158.041 195.96C159.561 197.667 160.321 199.987 160.321 202.92V216H152.481V203.96C152.481 202.68 152.148 201.68 151.481 200.96C150.814 200.213 149.921 199.84 148.801 199.84C147.628 199.84 146.708 200.213 146.041 200.96C145.374 201.68 145.041 202.68 145.041 203.96V216H137.201V193.56H145.041V196.76C145.734 195.747 146.668 194.933 147.841 194.32C149.014 193.68 150.361 193.36 151.881 193.36ZM168.583 191.48C167.196 191.48 166.076 191.107 165.223 190.36C164.396 189.587 163.983 188.627 163.983 187.48C163.983 186.307 164.396 185.333 165.223 184.56C166.076 183.787 167.196 183.4 168.583 183.4C169.943 183.4 171.036 183.787 171.863 184.56C172.716 185.333 173.143 186.307 173.143 187.48C173.143 188.627 172.716 189.587 171.863 190.36C171.036 191.107 169.943 191.48 168.583 191.48ZM172.463 193.56V216H164.623V193.56H172.463ZM175.648 204.76C175.648 202.44 176.061 200.413 176.888 198.68C177.741 196.947 178.901 195.613 180.368 194.68C181.834 193.747 183.461 193.28 185.247 193.28C186.688 193.28 187.968 193.587 189.088 194.2C190.234 194.787 191.128 195.6 191.768 196.64V186.4H199.648V216H191.768V212.88C191.154 213.92 190.288 214.747 189.168 215.36C188.048 215.973 186.728 216.28 185.208 216.28C183.421 216.28 181.794 215.813 180.328 214.88C178.888 213.947 177.741 212.613 176.888 210.88C176.061 209.12 175.648 207.08 175.648 204.76ZM191.808 204.76C191.808 203.32 191.408 202.187 190.608 201.36C189.834 200.533 188.874 200.12 187.728 200.12C186.554 200.12 185.581 200.533 184.808 201.36C184.034 202.16 183.648 203.293 183.648 204.76C183.648 206.2 184.034 207.347 184.808 208.2C185.581 209.027 186.554 209.44 187.728 209.44C188.874 209.44 189.834 209.027 190.608 208.2C191.408 207.373 191.808 206.227 191.808 204.76ZM202.835 204.76C202.835 202.44 203.248 200.413 204.075 198.68C204.928 196.947 206.075 195.613 207.515 194.68C208.982 193.747 210.608 193.28 212.395 193.28C213.942 193.28 215.275 193.587 216.395 194.2C217.515 194.813 218.382 195.64 218.995 196.68V193.56H226.835V216H218.995V212.88C218.382 213.92 217.502 214.747 216.355 215.36C215.235 215.973 213.915 216.28 212.395 216.28C210.608 216.28 208.982 215.813 207.515 214.88C206.075 213.947 204.928 212.613 204.075 210.88C203.248 209.12 202.835 207.08 202.835 204.76ZM218.995 204.76C218.995 203.32 218.595 202.187 217.795 201.36C217.022 200.533 216.062 200.12 214.915 200.12C213.742 200.12 212.768 200.533 211.995 201.36C211.222 202.16 210.835 203.293 210.835 204.76C210.835 206.2 211.222 207.347 211.995 208.2C212.768 209.027 213.742 209.44 214.915 209.44C216.062 209.44 217.022 209.027 217.795 208.2C218.595 207.373 218.995 206.227 218.995 204.76ZM230.023 204.76C230.023 202.44 230.436 200.413 231.263 198.68C232.116 196.947 233.276 195.613 234.743 194.68C236.209 193.747 237.836 193.28 239.622 193.28C241.063 193.28 242.343 193.587 243.463 194.2C244.609 194.787 245.503 195.6 246.143 196.64V186.4H254.023V216H246.143V212.88C245.529 213.92 244.663 214.747 243.543 215.36C242.423 215.973 241.103 216.28 239.583 216.28C237.796 216.28 236.169 215.813 234.703 214.88C233.263 213.947 232.116 212.613 231.263 210.88C230.436 209.12 230.023 207.08 230.023 204.76ZM246.183 204.76C246.183 203.32 245.783 202.187 244.983 201.36C244.209 200.533 243.249 200.12 242.103 200.12C240.929 200.12 239.956 200.533 239.183 201.36C238.409 202.16 238.023 203.293 238.023 204.76C238.023 206.2 238.409 207.347 239.183 208.2C239.956 209.027 240.929 209.44 242.103 209.44C243.249 209.44 244.209 209.027 244.983 208.2C245.783 207.373 246.183 206.227 246.183 204.76ZM279.93 204.52C279.93 205.133 279.89 205.747 279.81 206.36H264.97C265.05 207.587 265.383 208.507 265.97 209.12C266.583 209.707 267.357 210 268.29 210C269.597 210 270.53 209.413 271.09 208.24H279.45C279.103 209.787 278.423 211.173 277.41 212.4C276.423 213.6 275.17 214.547 273.65 215.24C272.13 215.933 270.45 216.28 268.61 216.28C266.397 216.28 264.423 215.813 262.69 214.88C260.983 213.947 259.637 212.613 258.65 210.88C257.69 209.147 257.21 207.107 257.21 204.76C257.21 202.413 257.69 200.387 258.65 198.68C259.61 196.947 260.943 195.613 262.65 194.68C264.383 193.747 266.37 193.28 268.61 193.28C270.823 193.28 272.783 193.733 274.49 194.64C276.197 195.547 277.53 196.853 278.49 198.56C279.45 200.24 279.93 202.227 279.93 204.52ZM271.93 202.56C271.93 201.6 271.61 200.853 270.97 200.32C270.33 199.76 269.53 199.48 268.57 199.48C267.61 199.48 266.823 199.747 266.21 200.28C265.597 200.787 265.197 201.547 265.01 202.56H271.93ZM109.088 257.08C108.634 256.333 108.008 255.76 107.208 255.36C106.434 254.96 105.514 254.76 104.448 254.76C102.474 254.76 100.914 255.4 99.7677 256.68C98.6477 257.96 98.0877 259.68 98.0877 261.84C98.0877 264.267 98.6877 266.12 99.8877 267.4C101.114 268.653 102.888 269.28 105.208 269.28C107.954 269.28 109.914 268.04 111.088 265.56H103.208V259.92H117.848V267.52C117.234 269.013 116.328 270.413 115.128 271.72C113.954 273.027 112.461 274.107 110.648 274.96C108.834 275.787 106.768 276.2 104.448 276.2C101.621 276.2 99.1143 275.6 96.9277 274.4C94.7677 273.173 93.0877 271.48 91.8877 269.32C90.7143 267.133 90.1277 264.64 90.1277 261.84C90.1277 259.067 90.7143 256.6 91.8877 254.44C93.0877 252.253 94.7677 250.56 96.9277 249.36C99.0877 248.133 101.581 247.52 104.408 247.52C107.954 247.52 110.888 248.373 113.208 250.08C115.528 251.787 116.968 254.12 117.528 257.08H109.088ZM142.801 264.52C142.801 265.133 142.761 265.747 142.681 266.36H127.841C127.921 267.587 128.254 268.507 128.841 269.12C129.454 269.707 130.228 270 131.161 270C132.468 270 133.401 269.413 133.961 268.24H142.321C141.974 269.787 141.294 271.173 140.281 272.4C139.294 273.6 138.041 274.547 136.521 275.24C135.001 275.933 133.321 276.28 131.481 276.28C129.268 276.28 127.294 275.813 125.561 274.88C123.854 273.947 122.508 272.613 121.521 270.88C120.561 269.147 120.081 267.107 120.081 264.76C120.081 262.413 120.561 260.387 121.521 258.68C122.481 256.947 123.814 255.613 125.521 254.68C127.254 253.747 129.241 253.28 131.481 253.28C133.694 253.28 135.654 253.733 137.361 254.64C139.068 255.547 140.401 256.853 141.361 258.56C142.321 260.24 142.801 262.227 142.801 264.52ZM134.801 262.56C134.801 261.6 134.481 260.853 133.841 260.32C133.201 259.76 132.401 259.48 131.441 259.48C130.481 259.48 129.694 259.747 129.081 260.28C128.468 260.787 128.068 261.547 127.881 262.56H134.801ZM153.85 257.52C154.73 256.24 155.796 255.227 157.05 254.48C158.303 253.733 159.65 253.36 161.09 253.36V261.72H158.89C157.183 261.72 155.916 262.053 155.09 262.72C154.263 263.387 153.85 264.547 153.85 266.2V276H146.01V253.56H153.85V257.52ZM162.62 264.76C162.62 262.44 163.033 260.413 163.86 258.68C164.713 256.947 165.86 255.613 167.3 254.68C168.767 253.747 170.393 253.28 172.18 253.28C173.727 253.28 175.06 253.587 176.18 254.2C177.3 254.813 178.167 255.64 178.78 256.68V253.56H186.62V276H178.78V272.88C178.167 273.92 177.287 274.747 176.14 275.36C175.02 275.973 173.7 276.28 172.18 276.28C170.393 276.28 168.767 275.813 167.3 274.88C165.86 273.947 164.713 272.613 163.86 270.88C163.033 269.12 162.62 267.08 162.62 264.76ZM178.78 264.76C178.78 263.32 178.38 262.187 177.58 261.36C176.807 260.533 175.847 260.12 174.7 260.12C173.527 260.12 172.553 260.533 171.78 261.36C171.007 262.16 170.62 263.293 170.62 264.76C170.62 266.2 171.007 267.347 171.78 268.2C172.553 269.027 173.527 269.44 174.7 269.44C175.847 269.44 176.807 269.027 177.58 268.2C178.38 267.373 178.78 266.227 178.78 264.76ZM198.928 246.4V276H191.088V246.4H198.928Z" fill="black"/>
</svg>
