<svg width="222" height="89" viewBox="0 0 222 89" fill="none" xmlns="http://www.w3.org/2000/svg">
<path d="M7.83977 6.72001V11.32H16.8398V17.28H7.83977V22.36H18.0398V28.64H-0.000234306V0.440013H18.0398V6.72001H7.83977ZM41.2338 33.36L38.1138 28.68C37.2338 28.84 36.3405 28.92 35.4338 28.92C32.7938 28.92 30.3672 28.3067 28.1538 27.08C25.9405 25.8267 24.1805 24.1067 22.8738 21.92C21.5938 19.7067 20.9538 17.2133 20.9538 14.44C20.9538 11.6667 21.5938 9.18668 22.8738 7.00001C24.1805 4.78668 25.9405 3.06668 28.1538 1.84001C30.3672 0.613347 32.7938 1.38283e-05 35.4338 1.38283e-05C38.1005 1.38283e-05 40.5272 0.613347 42.7138 1.84001C44.9272 3.06668 46.6738 4.78668 47.9538 7.00001C49.2338 9.18668 49.8738 11.6667 49.8738 14.44C49.8738 16.76 49.4072 18.9067 48.4738 20.88C47.5405 22.8267 46.2605 24.4533 44.6338 25.76L50.5938 33.36H41.2338ZM28.9538 14.44C28.9538 16.6533 29.5272 18.4133 30.6738 19.72C31.8205 21 33.4072 21.64 35.4338 21.64C37.4338 21.64 39.0072 20.9867 40.1538 19.68C41.3272 18.3733 41.9138 16.6267 41.9138 14.44C41.9138 12.2 41.3272 10.44 40.1538 9.16001C39.0072 7.85335 37.4338 7.20001 35.4338 7.20001C33.4072 7.20001 31.8205 7.85335 30.6738 9.16001C29.5272 10.44 28.9538 12.2 28.9538 14.44ZM61.1173 0.440013V16.8C61.1173 18.32 61.4639 19.4933 62.1573 20.32C62.8773 21.1467 63.9573 21.56 65.3973 21.56C66.8373 21.56 67.9173 21.1467 68.6373 20.32C69.3839 19.4667 69.7573 18.2933 69.7573 16.8V0.440013H77.5973V16.8C77.5973 19.3867 77.0506 21.6 75.9573 23.44C74.8639 25.2533 73.3706 26.6267 71.4773 27.56C69.6106 28.4667 67.5306 28.92 65.2373 28.92C62.9439 28.92 60.8906 28.4667 59.0773 27.56C57.2906 26.6267 55.8773 25.2533 54.8373 23.44C53.8239 21.6267 53.3173 19.4133 53.3173 16.8V0.440013H61.1173ZM89.7538 0.440013V28.64H81.9138V0.440013H89.7538ZM116.499 9.84001C116.499 11.5467 116.099 13.1067 115.299 14.52C114.525 15.9067 113.339 17.0267 111.739 17.88C110.165 18.7067 108.232 19.12 105.939 19.12H102.059V28.64H94.2185V0.440013H105.939C108.205 0.440013 110.125 0.840013 111.699 1.64001C113.299 2.44001 114.499 3.54668 115.299 4.96001C116.099 6.37335 116.499 8.00001 116.499 9.84001ZM105.179 12.88C107.392 12.88 108.499 11.8667 108.499 9.84001C108.499 7.78668 107.392 6.76001 105.179 6.76001H102.059V12.88H105.179ZM127.488 6.72001V11.32H136.488V17.28H127.488V22.36H137.688V28.64H119.648V0.440013H137.688V6.72001H127.488ZM152.202 28.92C148.922 28.92 146.229 28.1467 144.122 26.6C142.016 25.0267 140.882 22.7867 140.722 19.88H149.082C149.162 20.8667 149.456 21.5867 149.962 22.04C150.469 22.4933 151.122 22.72 151.922 22.72C152.642 22.72 153.229 22.5467 153.682 22.2C154.162 21.8267 154.402 21.32 154.402 20.68C154.402 19.8533 154.016 19.2133 153.242 18.76C152.469 18.3067 151.216 17.8 149.482 17.24C147.642 16.6267 146.149 16.04 145.002 15.48C143.882 14.8933 142.896 14.0533 142.042 12.96C141.216 11.84 140.802 10.3867 140.802 8.60001C140.802 6.78668 141.256 5.24001 142.162 3.96001C143.069 2.65335 144.322 1.66668 145.922 1.00001C147.522 0.333347 149.336 1.38283e-05 151.362 1.38283e-05C154.642 1.38283e-05 157.256 0.773347 159.202 2.32001C161.176 3.84001 162.229 5.98668 162.362 8.76001H153.842C153.816 7.90668 153.549 7.26668 153.042 6.84001C152.562 6.41335 151.936 6.20001 151.162 6.20001C150.576 6.20001 150.096 6.37335 149.722 6.72001C149.349 7.06668 149.162 7.56001 149.162 8.20001C149.162 8.73335 149.362 9.20001 149.762 9.60001C150.189 9.97335 150.709 10.3067 151.322 10.6C151.936 10.8667 152.842 11.2133 154.042 11.64C155.829 12.2533 157.296 12.8667 158.442 13.48C159.616 14.0667 160.616 14.9067 161.442 16C162.296 17.0667 162.722 18.4267 162.722 20.08C162.722 21.76 162.296 23.2667 161.442 24.6C160.616 25.9333 159.402 26.9867 157.802 27.76C156.229 28.5333 154.362 28.92 152.202 28.92ZM185.183 0.440013C188.143 0.440013 190.73 1.04001 192.943 2.24001C195.183 3.41335 196.903 5.06668 198.103 7.20001C199.303 9.33335 199.903 11.7733 199.903 14.52C199.903 17.24 199.29 19.6667 198.063 21.8C196.863 23.9333 195.143 25.6133 192.903 26.84C190.69 28.04 188.117 28.64 185.183 28.64H174.023V0.440013H185.183ZM184.583 21.72C186.877 21.72 188.677 21.0933 189.983 19.84C191.29 18.5867 191.943 16.8133 191.943 14.52C191.943 12.2 191.29 10.4133 189.983 9.16001C188.677 7.88001 186.877 7.24001 184.583 7.24001H181.863V21.72H184.583ZM211.277 6.72001V11.32H220.277V17.28H211.277V22.36H221.477V28.64H203.437V0.440013H221.477V6.72001H211.277ZM20.354 88.64L14.754 78.24H13.914V88.64H6.07398V60.44H18.434C20.7007 60.44 22.6207 60.84 24.194 61.64C25.7673 62.4133 26.954 63.4933 27.754 64.88C28.554 66.24 28.954 67.7733 28.954 69.48C28.954 71.4 28.4207 73.0933 27.354 74.56C26.314 76 24.7807 77.0267 22.754 77.64L29.114 88.64H20.354ZM13.914 72.88H17.794C18.8607 72.88 19.6607 72.6267 20.194 72.12C20.7273 71.6133 20.994 70.88 20.994 69.92C20.994 69.0133 20.714 68.3067 20.154 67.8C19.6207 67.2667 18.834 67 17.794 67H13.914V72.88ZM46.0393 88.92C43.3993 88.92 40.9726 88.3067 38.7593 87.08C36.546 85.8267 34.786 84.1067 33.4793 81.92C32.1993 79.7067 31.5593 77.2133 31.5593 74.44C31.5593 71.6667 32.1993 69.1867 33.4793 67C34.786 64.7867 36.546 63.0667 38.7593 61.84C40.9726 60.6133 43.3993 60 46.0393 60C48.706 60 51.1326 60.6133 53.3193 61.84C55.5326 63.0667 57.2793 64.7867 58.5593 67C59.8393 69.1867 60.4793 71.6667 60.4793 74.44C60.4793 77.2133 59.8393 79.7067 58.5593 81.92C57.2793 84.1067 55.5326 85.8267 53.3193 87.08C51.106 88.3067 48.6793 88.92 46.0393 88.92ZM46.0393 81.64C48.0393 81.64 49.6126 80.9867 50.7593 79.68C51.9326 78.3733 52.5193 76.6267 52.5193 74.44C52.5193 72.2 51.9326 70.44 50.7593 69.16C49.6126 67.8533 48.0393 67.2 46.0393 67.2C44.0126 67.2 42.426 67.8533 41.2793 69.16C40.1326 70.44 39.5593 72.2 39.5593 74.44C39.5593 76.6533 40.1326 78.4133 41.2793 79.72C42.426 81 44.0126 81.64 46.0393 81.64ZM82.0037 74.16C83.657 74.5333 84.9637 75.36 85.9237 76.64C86.9103 77.8933 87.4037 79.3333 87.4037 80.96C87.4037 83.36 86.577 85.24 84.9237 86.6C83.2703 87.96 80.9503 88.64 77.9637 88.64H64.0037V60.44H77.5237C80.4037 60.44 82.657 61.08 84.2837 62.36C85.937 63.64 86.7637 65.44 86.7637 67.76C86.7637 69.4133 86.3237 70.8 85.4437 71.92C84.5903 73.0133 83.4437 73.76 82.0037 74.16ZM71.8437 71.64H75.8037C77.777 71.64 78.7637 70.8267 78.7637 69.2C78.7637 67.52 77.777 66.68 75.8037 66.68H71.8437V71.64ZM76.4037 82.32C78.377 82.32 79.3637 81.4933 79.3637 79.84C79.3637 78.9867 79.097 78.3333 78.5637 77.88C78.057 77.4267 77.3237 77.2 76.3637 77.2H71.8437V82.32H76.4037ZM104.36 88.92C101.72 88.92 99.2929 88.3067 97.0796 87.08C94.8663 85.8267 93.1063 84.1067 91.7996 81.92C90.5196 79.7067 89.8796 77.2133 89.8796 74.44C89.8796 71.6667 90.5196 69.1867 91.7996 67C93.1063 64.7867 94.8663 63.0667 97.0796 61.84C99.2929 60.6133 101.72 60 104.36 60C107.026 60 109.453 60.6133 111.64 61.84C113.853 63.0667 115.6 64.7867 116.88 67C118.16 69.1867 118.8 71.6667 118.8 74.44C118.8 77.2133 118.16 79.7067 116.88 81.92C115.6 84.1067 113.853 85.8267 111.64 87.08C109.426 88.3067 107 88.92 104.36 88.92ZM104.36 81.64C106.36 81.64 107.933 80.9867 109.08 79.68C110.253 78.3733 110.84 76.6267 110.84 74.44C110.84 72.2 110.253 70.44 109.08 69.16C107.933 67.8533 106.36 67.2 104.36 67.2C102.333 67.2 100.746 67.8533 99.5996 69.16C98.4529 70.44 97.8796 72.2 97.8796 74.44C97.8796 76.6533 98.4529 78.4133 99.5996 79.72C100.746 81 102.333 81.64 104.36 81.64ZM109.24 54.88L99.2396 58.8V53.48L109.24 48.96V54.88ZM143.564 60.44V66.68H136.044V88.64H128.204V66.68H120.764V60.44H143.564ZM154.305 60.44V88.64H146.465V60.44H154.305ZM157.809 74.48C157.809 71.7067 158.383 69.24 159.529 67.08C160.703 64.8933 162.356 63.2 164.489 62C166.623 60.7733 169.076 60.16 171.849 60.16C175.369 60.16 178.329 61.1067 180.729 63C183.129 64.8667 184.676 67.4133 185.369 70.64H176.929C176.423 69.5733 175.716 68.76 174.809 68.2C173.929 67.64 172.903 67.36 171.729 67.36C169.916 67.36 168.463 68.0133 167.369 69.32C166.303 70.6 165.769 72.32 165.769 74.48C165.769 76.6667 166.303 78.4133 167.369 79.72C168.463 81 169.916 81.64 171.729 81.64C172.903 81.64 173.929 81.36 174.809 80.8C175.716 80.24 176.423 79.4267 176.929 78.36H185.369C184.676 81.5867 183.129 84.1467 180.729 86.04C178.329 87.9067 175.369 88.84 171.849 88.84C169.076 88.84 166.623 88.24 164.489 87.04C162.356 85.8133 160.703 84.12 159.529 81.96C158.383 79.7733 157.809 77.28 157.809 74.48ZM206.922 84.04H196.922L195.402 88.64H187.162L197.442 60.44H206.482L216.722 88.64H208.442L206.922 84.04ZM204.962 78.04L201.922 68.92L198.922 78.04H204.962Z" fill="#1F1F1F"/>
</svg>
