<svg width="163" height="89" viewBox="0 0 163 89" fill="none" xmlns="http://www.w3.org/2000/svg">
<path d="M7.83977 6.72001V11.32H16.8398V17.28H7.83977V22.36H18.0398V28.64H-0.000234306V0.440013H18.0398V6.72001H7.83977ZM41.2338 33.36L38.1138 28.68C37.2338 28.84 36.3405 28.92 35.4338 28.92C32.7938 28.92 30.3672 28.3067 28.1538 27.08C25.9405 25.8267 24.1805 24.1067 22.8738 21.92C21.5938 19.7067 20.9538 17.2133 20.9538 14.44C20.9538 11.6667 21.5938 9.18668 22.8738 7.00001C24.1805 4.78668 25.9405 3.06668 28.1538 1.84001C30.3672 0.613347 32.7938 1.38283e-05 35.4338 1.38283e-05C38.1005 1.38283e-05 40.5272 0.613347 42.7138 1.84001C44.9272 3.06668 46.6738 4.78668 47.9538 7.00001C49.2338 9.18668 49.8738 11.6667 49.8738 14.44C49.8738 16.76 49.4072 18.9067 48.4738 20.88C47.5405 22.8267 46.2605 24.4533 44.6338 25.76L50.5938 33.36H41.2338ZM28.9538 14.44C28.9538 16.6533 29.5272 18.4133 30.6738 19.72C31.8205 21 33.4072 21.64 35.4338 21.64C37.4338 21.64 39.0072 20.9867 40.1538 19.68C41.3272 18.3733 41.9138 16.6267 41.9138 14.44C41.9138 12.2 41.3272 10.44 40.1538 9.16001C39.0072 7.85335 37.4338 7.20001 35.4338 7.20001C33.4072 7.20001 31.8205 7.85335 30.6738 9.16001C29.5272 10.44 28.9538 12.2 28.9538 14.44ZM61.1173 0.440013V16.8C61.1173 18.32 61.4639 19.4933 62.1573 20.32C62.8773 21.1467 63.9573 21.56 65.3973 21.56C66.8373 21.56 67.9173 21.1467 68.6373 20.32C69.3839 19.4667 69.7573 18.2933 69.7573 16.8V0.440013H77.5973V16.8C77.5973 19.3867 77.0506 21.6 75.9573 23.44C74.8639 25.2533 73.3706 26.6267 71.4773 27.56C69.6106 28.4667 67.5306 28.92 65.2373 28.92C62.9439 28.92 60.8906 28.4667 59.0773 27.56C57.2906 26.6267 55.8773 25.2533 54.8373 23.44C53.8239 21.6267 53.3173 19.4133 53.3173 16.8V0.440013H61.1173ZM89.7538 0.440013V28.64H81.9138V0.440013H89.7538ZM116.499 9.84001C116.499 11.5467 116.099 13.1067 115.299 14.52C114.525 15.9067 113.339 17.0267 111.739 17.88C110.165 18.7067 108.232 19.12 105.939 19.12H102.059V28.64H94.2185V0.440013H105.939C108.205 0.440013 110.125 0.840013 111.699 1.64001C113.299 2.44001 114.499 3.54668 115.299 4.96001C116.099 6.37335 116.499 8.00001 116.499 9.84001ZM105.179 12.88C107.392 12.88 108.499 11.8667 108.499 9.84001C108.499 7.78668 107.392 6.76001 105.179 6.76001H102.059V12.88H105.179ZM127.488 6.72001V11.32H136.488V17.28H127.488V22.36H137.688V28.64H119.648V0.440013H137.688V6.72001H127.488ZM152.202 28.92C148.922 28.92 146.229 28.1467 144.122 26.6C142.016 25.0267 140.882 22.7867 140.722 19.88H149.082C149.162 20.8667 149.456 21.5867 149.962 22.04C150.469 22.4933 151.122 22.72 151.922 22.72C152.642 22.72 153.229 22.5467 153.682 22.2C154.162 21.8267 154.402 21.32 154.402 20.68C154.402 19.8533 154.016 19.2133 153.242 18.76C152.469 18.3067 151.216 17.8 149.482 17.24C147.642 16.6267 146.149 16.04 145.002 15.48C143.882 14.8933 142.896 14.0533 142.042 12.96C141.216 11.84 140.802 10.3867 140.802 8.60001C140.802 6.78668 141.256 5.24001 142.162 3.96001C143.069 2.65335 144.322 1.66668 145.922 1.00001C147.522 0.333347 149.336 1.38283e-05 151.362 1.38283e-05C154.642 1.38283e-05 157.256 0.773347 159.202 2.32001C161.176 3.84001 162.229 5.98668 162.362 8.76001H153.842C153.816 7.90668 153.549 7.26668 153.042 6.84001C152.562 6.41335 151.936 6.20001 151.162 6.20001C150.576 6.20001 150.096 6.37335 149.722 6.72001C149.349 7.06668 149.162 7.56001 149.162 8.20001C149.162 8.73335 149.362 9.20001 149.762 9.60001C150.189 9.97335 150.709 10.3067 151.322 10.6C151.936 10.8667 152.842 11.2133 154.042 11.64C155.829 12.2533 157.296 12.8667 158.442 13.48C159.616 14.0667 160.616 14.9067 161.442 16C162.296 17.0667 162.722 18.4267 162.722 20.08C162.722 21.76 162.296 23.2667 161.442 24.6C160.616 25.9333 159.402 26.9867 157.802 27.76C156.229 28.5333 154.362 28.92 152.202 28.92Z" fill="#1F1F1F"/>
<path d="M71.444 60.44V66.68H60.164V71.64H68.484V77.6H60.164V88.64H52.324V60.44H71.444ZM82.5859 82.64H91.3459V88.64H74.7459V60.44H82.5859V82.64ZM102.234 82.64H110.994V88.64H94.3943V60.44H102.234V82.64Z" fill="#D41E1E"/>
</svg>
