<svg width="847" height="60" viewBox="0 0 847 60" fill="none" xmlns="http://www.w3.org/2000/svg">
<path d="M11.7601 26.64V33.54H25.2601V42.48H11.7601V50.1H27.0601V59.52H0.000136822V17.22H27.0601V26.64H11.7601ZM48.8312 59.94C43.9112 59.94 39.8712 58.78 36.7112 56.46C33.5512 54.1 31.8512 50.74 31.6112 46.38H44.1512C44.2712 47.86 44.7112 48.94 45.4712 49.62C46.2312 50.3 47.2112 50.64 48.4112 50.64C49.4912 50.64 50.3712 50.38 51.0512 49.86C51.7712 49.3 52.1312 48.54 52.1312 47.58C52.1312 46.34 51.5512 45.38 50.3912 44.7C49.2312 44.02 47.3512 43.26 44.7512 42.42C41.9912 41.5 39.7512 40.62 38.0312 39.78C36.3512 38.9 34.8712 37.64 33.5912 36C32.3512 34.32 31.7312 32.14 31.7312 29.46C31.7312 26.74 32.4112 24.42 33.7712 22.5C35.1312 20.54 37.0112 19.06 39.4112 18.06C41.8112 17.06 44.5312 16.56 47.5712 16.56C52.4912 16.56 56.4112 17.72 59.3312 20.04C62.2912 22.32 63.8712 25.54 64.0712 29.7H51.2912C51.2512 28.42 50.8512 27.46 50.0912 26.82C49.3712 26.18 48.4312 25.86 47.2712 25.86C46.3912 25.86 45.6712 26.12 45.1112 26.64C44.5512 27.16 44.2712 27.9 44.2712 28.86C44.2712 29.66 44.5712 30.36 45.1712 30.96C45.8112 31.52 46.5912 32.02 47.5112 32.46C48.4312 32.86 49.7912 33.38 51.5912 34.02C54.2712 34.94 56.4712 35.86 58.1912 36.78C59.9512 37.66 61.4512 38.92 62.6912 40.56C63.9712 42.16 64.6112 44.2 64.6112 46.68C64.6112 49.2 63.9712 51.46 62.6912 53.46C61.4512 55.46 59.6312 57.04 57.2312 58.2C54.8712 59.36 52.0712 59.94 48.8312 59.94ZM101.938 17.22V26.58H90.6583V59.52H78.8983V26.58H67.7383V17.22H101.938ZM117.809 17.22V41.76C117.809 44.04 118.329 45.8 119.369 47.04C120.449 48.28 122.069 48.9 124.229 48.9C126.389 48.9 128.009 48.28 129.089 47.04C130.209 45.76 130.769 44 130.769 41.76V17.22H142.529V41.76C142.529 45.64 141.709 48.96 140.069 51.72C138.429 54.44 136.189 56.5 133.349 57.9C130.549 59.26 127.429 59.94 123.989 59.94C120.549 59.94 117.469 59.26 114.749 57.9C112.069 56.5 109.949 54.44 108.389 51.72C106.869 49 106.109 45.68 106.109 41.76V17.22H117.809ZM165.744 17.22C170.184 17.22 174.064 18.12 177.384 19.92C180.744 21.68 183.324 24.16 185.124 27.36C186.924 30.56 187.824 34.22 187.824 38.34C187.824 42.42 186.904 46.06 185.064 49.26C183.264 52.46 180.684 54.98 177.324 56.82C174.004 58.62 170.144 59.52 165.744 59.52H149.004V17.22H165.744ZM164.844 49.14C168.284 49.14 170.984 48.2 172.944 46.32C174.904 44.44 175.884 41.78 175.884 38.34C175.884 34.86 174.904 32.18 172.944 30.3C170.984 28.38 168.284 27.42 164.844 27.42H160.764V49.14H164.844ZM204.885 26.64V33.54H218.385V42.48H204.885V50.1H220.185V59.52H193.125V17.22H220.185V26.64H204.885ZM258.901 59.52L250.501 43.92H249.241V59.52H237.481V17.22H256.021C259.421 17.22 262.301 17.82 264.661 19.02C267.021 20.18 268.801 21.8 270.001 23.88C271.201 25.92 271.801 28.22 271.801 30.78C271.801 33.66 271.001 36.2 269.401 38.4C267.841 40.56 265.541 42.1 262.501 43.02L272.041 59.52H258.901ZM249.241 35.88H255.061C256.661 35.88 257.861 35.5 258.661 34.74C259.461 33.98 259.861 32.88 259.861 31.44C259.861 30.08 259.441 29.02 258.601 28.26C257.801 27.46 256.621 27.06 255.061 27.06H249.241V35.88ZM297.429 59.94C293.469 59.94 289.829 59.02 286.509 57.18C283.189 55.3 280.549 52.72 278.589 49.44C276.669 46.12 275.709 42.38 275.709 38.22C275.709 34.06 276.669 30.34 278.589 27.06C280.549 23.74 283.189 21.16 286.509 19.32C289.829 17.48 293.469 16.56 297.429 16.56C301.429 16.56 305.069 17.48 308.349 19.32C311.669 21.16 314.289 23.74 316.209 27.06C318.129 30.34 319.089 34.06 319.089 38.22C319.089 42.38 318.129 46.12 316.209 49.44C314.289 52.72 311.669 55.3 308.349 57.18C305.029 59.02 301.389 59.94 297.429 59.94ZM297.429 49.02C300.429 49.02 302.789 48.04 304.509 46.08C306.269 44.12 307.149 41.5 307.149 38.22C307.149 34.86 306.269 32.22 304.509 30.3C302.789 28.34 300.429 27.36 297.429 27.36C294.389 27.36 292.009 28.34 290.289 30.3C288.569 32.22 287.709 34.86 287.709 38.22C287.709 41.54 288.569 44.18 290.289 46.14C292.009 48.06 294.389 49.02 297.429 49.02ZM351.375 37.8C353.855 38.36 355.815 39.6 357.255 41.52C358.735 43.4 359.475 45.56 359.475 48C359.475 51.6 358.235 54.42 355.755 56.46C353.275 58.5 349.795 59.52 345.315 59.52H324.375V17.22H344.655C348.975 17.22 352.355 18.18 354.795 20.1C357.275 22.02 358.515 24.72 358.515 28.2C358.515 30.68 357.855 32.76 356.535 34.44C355.255 36.08 353.535 37.2 351.375 37.8ZM336.135 34.02H342.075C345.035 34.02 346.515 32.8 346.515 30.36C346.515 27.84 345.035 26.58 342.075 26.58H336.135V34.02ZM342.975 50.04C345.935 50.04 347.415 48.8 347.415 46.32C347.415 45.04 347.015 44.06 346.215 43.38C345.455 42.7 344.355 42.36 342.915 42.36H336.135V50.04H342.975ZM384.909 59.94C380.949 59.94 377.309 59.02 373.989 57.18C370.669 55.3 368.029 52.72 366.069 49.44C364.149 46.12 363.189 42.38 363.189 38.22C363.189 34.06 364.149 30.34 366.069 27.06C368.029 23.74 370.669 21.16 373.989 19.32C377.309 17.48 380.949 16.56 384.909 16.56C388.909 16.56 392.549 17.48 395.829 19.32C399.149 21.16 401.769 23.74 403.689 27.06C405.609 30.34 406.569 34.06 406.569 38.22C406.569 42.38 405.609 46.12 403.689 49.44C401.769 52.72 399.149 55.3 395.829 57.18C392.509 59.02 388.869 59.94 384.909 59.94ZM384.909 49.02C387.909 49.02 390.269 48.04 391.989 46.08C393.749 44.12 394.629 41.5 394.629 38.22C394.629 34.86 393.749 32.22 391.989 30.3C390.269 28.34 387.909 27.36 384.909 27.36C381.869 27.36 379.489 28.34 377.769 30.3C376.049 32.22 375.189 34.86 375.189 38.22C375.189 41.54 376.049 44.18 377.769 46.14C379.489 48.06 381.869 49.02 384.909 49.02ZM392.229 8.88002L377.229 14.76V6.78002L392.229 1.69277e-05V8.88002ZM443.716 17.22V26.58H432.436V59.52H420.676V26.58H409.516V17.22H443.716ZM459.827 17.22V59.52H448.067V17.22H459.827ZM465.084 38.28C465.084 34.12 465.944 30.42 467.664 27.18C469.424 23.9 471.904 21.36 475.104 19.56C478.304 17.72 481.984 16.8 486.144 16.8C491.424 16.8 495.864 18.22 499.464 21.06C503.064 23.86 505.384 27.68 506.424 32.52H493.764C493.004 30.92 491.944 29.7 490.584 28.86C489.264 28.02 487.724 27.6 485.964 27.6C483.244 27.6 481.064 28.58 479.424 30.54C477.824 32.46 477.024 35.04 477.024 38.28C477.024 41.56 477.824 44.18 479.424 46.14C481.064 48.06 483.244 49.02 485.964 49.02C487.724 49.02 489.264 48.6 490.584 47.76C491.944 46.92 493.004 45.7 493.764 44.1H506.424C505.384 48.94 503.064 52.78 499.464 55.62C495.864 58.42 491.424 59.82 486.144 59.82C481.984 59.82 478.304 58.92 475.104 57.12C471.904 55.28 469.424 52.74 467.664 49.5C465.944 46.22 465.084 42.48 465.084 38.28ZM538.752 52.62H523.752L521.472 59.52H509.112L524.532 17.22H538.092L553.452 59.52H541.032L538.752 52.62ZM535.812 43.62L531.252 29.94L526.752 43.62H535.812ZM585.51 17.22C589.95 17.22 593.83 18.12 597.15 19.92C600.51 21.68 603.09 24.16 604.89 27.36C606.69 30.56 607.59 34.22 607.59 38.34C607.59 42.42 606.67 46.06 604.83 49.26C603.03 52.46 600.45 54.98 597.09 56.82C593.77 58.62 589.91 59.52 585.51 59.52H568.77V17.22H585.51ZM584.61 49.14C588.05 49.14 590.75 48.2 592.71 46.32C594.67 44.44 595.65 41.78 595.65 38.34C595.65 34.86 594.67 32.18 592.71 30.3C590.75 28.38 588.05 27.42 584.61 27.42H580.53V49.14H584.61ZM624.651 26.64V33.54H638.151V42.48H624.651V50.1H639.951V59.52H612.891V17.22H639.951V26.64H624.651ZM655.806 38.28C655.806 34.12 656.666 30.42 658.386 27.18C660.146 23.9 662.626 21.36 665.826 19.56C669.026 17.72 672.706 16.8 676.866 16.8C682.146 16.8 686.586 18.22 690.186 21.06C693.786 23.86 696.106 27.68 697.146 32.52H684.486C683.726 30.92 682.666 29.7 681.306 28.86C679.986 28.02 678.446 27.6 676.686 27.6C673.966 27.6 671.786 28.58 670.146 30.54C668.546 32.46 667.746 35.04 667.746 38.28C667.746 41.56 668.546 44.18 670.146 46.14C671.786 48.06 673.966 49.02 676.686 49.02C678.446 49.02 679.986 48.6 681.306 47.76C682.666 46.92 683.726 45.7 684.486 44.1H697.146C696.106 48.94 693.786 52.78 690.186 55.62C686.586 58.42 682.146 59.82 676.866 59.82C672.706 59.82 669.026 58.92 665.826 57.12C662.626 55.28 660.146 52.74 658.386 49.5C656.666 46.22 655.806 42.48 655.806 38.28ZM729.475 52.62H714.475L712.195 59.52H699.835L715.255 17.22H728.815L744.175 59.52H731.755L729.475 52.62ZM726.535 43.62L721.975 29.94L717.475 43.62H726.535ZM763.968 59.94C759.048 59.94 755.008 58.78 751.848 56.46C748.688 54.1 746.988 50.74 746.748 46.38H759.288C759.408 47.86 759.848 48.94 760.608 49.62C761.368 50.3 762.348 50.64 763.548 50.64C764.628 50.64 765.508 50.38 766.188 49.86C766.908 49.3 767.268 48.54 767.268 47.58C767.268 46.34 766.688 45.38 765.528 44.7C764.368 44.02 762.488 43.26 759.888 42.42C757.128 41.5 754.888 40.62 753.168 39.78C751.488 38.9 750.008 37.64 748.728 36C747.488 34.32 746.868 32.14 746.868 29.46C746.868 26.74 747.548 24.42 748.908 22.5C750.268 20.54 752.148 19.06 754.548 18.06C756.948 17.06 759.668 16.56 762.708 16.56C767.628 16.56 771.548 17.72 774.468 20.04C777.428 22.32 779.008 25.54 779.208 29.7H766.428C766.388 28.42 765.988 27.46 765.228 26.82C764.508 26.18 763.568 25.86 762.408 25.86C761.528 25.86 760.808 26.12 760.248 26.64C759.688 27.16 759.408 27.9 759.408 28.86C759.408 29.66 759.708 30.36 760.308 30.96C760.948 31.52 761.728 32.02 762.648 32.46C763.568 32.86 764.928 33.38 766.728 34.02C769.408 34.94 771.608 35.86 773.328 36.78C775.088 37.66 776.588 38.92 777.828 40.56C779.108 42.16 779.748 44.2 779.748 46.68C779.748 49.2 779.108 51.46 777.828 53.46C776.588 55.46 774.768 57.04 772.368 58.2C770.008 59.36 767.208 59.94 763.968 59.94ZM811.975 52.62H796.975L794.695 59.52H782.335L797.755 17.22H811.315L826.675 59.52H814.255L811.975 52.62ZM809.035 43.62L804.475 29.94L799.975 43.62H809.035ZM846.228 15.06L844.848 43.68H834.828L833.448 15.06H846.228ZM839.868 60C837.788 60 836.108 59.44 834.828 58.32C833.588 57.16 832.968 55.7 832.968 53.94C832.968 52.18 833.588 50.72 834.828 49.56C836.108 48.4 837.788 47.82 839.868 47.82C841.908 47.82 843.548 48.4 844.788 49.56C846.068 50.72 846.708 52.18 846.708 53.94C846.708 55.66 846.068 57.1 844.788 58.26C843.548 59.42 841.908 60 839.868 60Z" fill="#004AAD"/>
</svg>
