<svg width="237" height="81" viewBox="0 0 237 81" fill="none" xmlns="http://www.w3.org/2000/svg">
<path d="M16.065 44.64L9.76498 32.94H8.81998V44.64H-1.94535e-05V12.915H13.905C16.455 12.915 18.615 13.365 20.385 14.265C22.155 15.135 23.49 16.35 24.39 17.91C25.29 19.44 25.74 21.165 25.74 23.085C25.74 25.245 25.14 27.15 23.94 28.8C22.77 30.42 21.045 31.575 18.765 32.265L25.92 44.64H16.065ZM8.81998 26.91H13.185C14.385 26.91 15.285 26.625 15.885 26.055C16.485 25.485 16.785 24.66 16.785 23.58C16.785 22.56 16.47 21.765 15.84 21.195C15.24 20.595 14.355 20.295 13.185 20.295H8.81998V26.91ZM44.961 44.955C41.991 44.955 39.261 44.265 36.771 42.885C34.281 41.475 32.301 39.54 30.831 37.08C29.391 34.59 28.671 31.785 28.671 28.665C28.671 25.545 29.391 22.755 30.831 20.295C32.301 17.805 34.281 15.87 36.771 14.49C39.261 13.11 41.991 12.42 44.961 12.42C47.961 12.42 50.691 13.11 53.151 14.49C55.641 15.87 57.606 17.805 59.046 20.295C60.486 22.755 61.206 25.545 61.206 28.665C61.206 31.785 60.486 34.59 59.046 37.08C57.606 39.54 55.641 41.475 53.151 42.885C50.661 44.265 47.931 44.955 44.961 44.955ZM44.961 36.765C47.211 36.765 48.981 36.03 50.271 34.56C51.591 33.09 52.251 31.125 52.251 28.665C52.251 26.145 51.591 24.165 50.271 22.725C48.981 21.255 47.211 20.52 44.961 20.52C42.681 20.52 40.896 21.255 39.606 22.725C38.316 24.165 37.671 26.145 37.671 28.665C37.671 31.155 38.316 33.135 39.606 34.605C40.896 36.045 42.681 36.765 44.961 36.765ZM85.4209 28.35C87.2809 28.77 88.7509 29.7 89.8309 31.14C90.9409 32.55 91.4959 34.17 91.4959 36C91.4959 38.7 90.5659 40.815 88.7059 42.345C86.8459 43.875 84.2359 44.64 80.8759 44.64H65.1709V12.915H80.3809C83.6209 12.915 86.1559 13.635 87.9859 15.075C89.8459 16.515 90.7759 18.54 90.7759 21.15C90.7759 23.01 90.2809 24.57 89.2909 25.83C88.3309 27.06 87.0409 27.9 85.4209 28.35ZM73.9909 25.515H78.4459C80.6659 25.515 81.7759 24.6 81.7759 22.77C81.7759 20.88 80.6659 19.935 78.4459 19.935H73.9909V25.515ZM79.1209 37.53C81.3409 37.53 82.4509 36.6 82.4509 34.74C82.4509 33.78 82.1509 33.045 81.5509 32.535C80.9809 32.025 80.1559 31.77 79.0759 31.77H73.9909V37.53H79.1209ZM110.571 44.955C107.601 44.955 104.871 44.265 102.381 42.885C99.8913 41.475 97.9113 39.54 96.4413 37.08C95.0013 34.59 94.2813 31.785 94.2813 28.665C94.2813 25.545 95.0013 22.755 96.4413 20.295C97.9113 17.805 99.8913 15.87 102.381 14.49C104.871 13.11 107.601 12.42 110.571 12.42C113.571 12.42 116.301 13.11 118.761 14.49C121.251 15.87 123.216 17.805 124.656 20.295C126.096 22.755 126.816 25.545 126.816 28.665C126.816 31.785 126.096 34.59 124.656 37.08C123.216 39.54 121.251 41.475 118.761 42.885C116.271 44.265 113.541 44.955 110.571 44.955ZM110.571 36.765C112.821 36.765 114.591 36.03 115.881 34.56C117.201 33.09 117.861 31.125 117.861 28.665C117.861 26.145 117.201 24.165 115.881 22.725C114.591 21.255 112.821 20.52 110.571 20.52C108.291 20.52 106.506 21.255 105.216 22.725C103.926 24.165 103.281 26.145 103.281 28.665C103.281 31.155 103.926 33.135 105.216 34.605C106.506 36.045 108.291 36.765 110.571 36.765ZM116.061 6.66001L104.811 11.07V5.08501L116.061 1.26958e-05V6.66001ZM154.676 12.915V19.935H146.216V44.64H137.396V19.935H129.026V12.915H154.676ZM166.759 12.915V44.64H157.939V12.915H166.759ZM170.702 28.71C170.702 25.59 171.347 22.815 172.637 20.385C173.957 17.925 175.817 16.02 178.217 14.67C180.617 13.29 183.377 12.6 186.497 12.6C190.457 12.6 193.787 13.665 196.487 15.795C199.187 17.895 200.927 20.76 201.707 24.39H192.212C191.642 23.19 190.847 22.275 189.827 21.645C188.837 21.015 187.682 20.7 186.362 20.7C184.322 20.7 182.687 21.435 181.457 22.905C180.257 24.345 179.657 26.28 179.657 28.71C179.657 31.17 180.257 33.135 181.457 34.605C182.687 36.045 184.322 36.765 186.362 36.765C187.682 36.765 188.837 36.45 189.827 35.82C190.847 35.19 191.642 34.275 192.212 33.075H201.707C200.927 36.705 199.187 39.585 196.487 41.715C193.787 43.815 190.457 44.865 186.497 44.865C183.377 44.865 180.617 44.19 178.217 42.84C175.817 41.46 173.957 39.555 172.637 37.125C171.347 34.665 170.702 31.86 170.702 28.71ZM225.954 39.465H214.704L212.994 44.64H203.724L215.289 12.915H225.459L236.979 44.64H227.664L225.954 39.465ZM223.749 32.715L220.329 22.455L216.954 32.715H223.749Z" fill="#004AAD"/>
<path d="M15.0379 48.915C18.3679 48.915 21.2779 49.59 23.7679 50.94C26.2879 52.26 28.2229 54.12 29.5729 56.52C30.9229 58.92 31.5979 61.665 31.5979 64.755C31.5979 67.815 30.9079 70.545 29.5279 72.945C28.1779 75.345 26.2429 77.235 23.7229 78.615C21.2329 79.965 18.3379 80.64 15.0379 80.64H2.48289V48.915H15.0379ZM14.3629 72.855C16.9429 72.855 18.9679 72.15 20.4379 70.74C21.9079 69.33 22.6429 67.335 22.6429 64.755C22.6429 62.145 21.9079 60.135 20.4379 58.725C18.9679 57.285 16.9429 56.565 14.3629 56.565H11.3029V72.855H14.3629ZM50.7837 80.955C47.8137 80.955 45.0837 80.265 42.5937 78.885C40.1037 77.475 38.1237 75.54 36.6537 73.08C35.2137 70.59 34.4937 67.785 34.4937 64.665C34.4937 61.545 35.2137 58.755 36.6537 56.295C38.1237 53.805 40.1037 51.87 42.5937 50.49C45.0837 49.11 47.8137 48.42 50.7837 48.42C53.7837 48.42 56.5137 49.11 58.9737 50.49C61.4637 51.87 63.4287 53.805 64.8687 56.295C66.3087 58.755 67.0287 61.545 67.0287 64.665C67.0287 67.785 66.3087 70.59 64.8687 73.08C63.4287 75.54 61.4637 77.475 58.9737 78.885C56.4837 80.265 53.7537 80.955 50.7837 80.955ZM50.7837 72.765C53.0337 72.765 54.8037 72.03 56.0937 70.56C57.4137 69.09 58.0737 67.125 58.0737 64.665C58.0737 62.145 57.4137 60.165 56.0937 58.725C54.8037 57.255 53.0337 56.52 50.7837 56.52C48.5037 56.52 46.7187 57.255 45.4287 58.725C44.1387 60.165 43.4937 62.145 43.4937 64.665C43.4937 67.155 44.1387 69.135 45.4287 70.605C46.7187 72.045 48.5037 72.765 50.7837 72.765Z" fill="#F1B10D"/>
<path d="M99.8569 64.35C101.717 64.77 103.187 65.7 104.267 67.14C105.377 68.55 105.932 70.17 105.932 72C105.932 74.7 105.002 76.815 103.142 78.345C101.282 79.875 98.6719 80.64 95.3119 80.64H79.6069V48.915H94.8169C98.0569 48.915 100.592 49.635 102.422 51.075C104.282 52.515 105.212 54.54 105.212 57.15C105.212 59.01 104.717 60.57 103.727 61.83C102.767 63.06 101.477 63.9 99.8569 64.35ZM88.4269 61.515H92.8819C95.1019 61.515 96.2119 60.6 96.2119 58.77C96.2119 56.88 95.1019 55.935 92.8819 55.935H88.4269V61.515ZM93.5569 73.53C95.7769 73.53 96.8869 72.6 96.8869 70.74C96.8869 69.78 96.5869 69.045 95.9869 68.535C95.4169 68.025 94.5919 67.77 93.5119 67.77H88.4269V73.53H93.5569ZM125.862 80.64L119.562 68.94H118.617V80.64H109.797V48.915H123.702C126.252 48.915 128.412 49.365 130.182 50.265C131.952 51.135 133.287 52.35 134.187 53.91C135.087 55.44 135.537 57.165 135.537 59.085C135.537 61.245 134.937 63.15 133.737 64.8C132.567 66.42 130.842 67.575 128.562 68.265L135.717 80.64H125.862ZM118.617 62.91H122.982C124.182 62.91 125.082 62.625 125.682 62.055C126.282 61.485 126.582 60.66 126.582 59.58C126.582 58.56 126.267 57.765 125.637 57.195C125.037 56.595 124.152 56.295 122.982 56.295H118.617V62.91ZM159.618 75.465H148.368L146.658 80.64H137.388L148.953 48.915H159.123L170.643 80.64H161.328L159.618 75.465ZM157.413 68.715L153.993 58.455L150.618 68.715H157.413ZM185.488 80.955C181.798 80.955 178.768 80.085 176.398 78.345C174.028 76.575 172.753 74.055 172.573 70.785H181.978C182.068 71.895 182.398 72.705 182.968 73.215C183.538 73.725 184.273 73.98 185.173 73.98C185.983 73.98 186.643 73.785 187.153 73.395C187.693 72.975 187.963 72.405 187.963 71.685C187.963 70.755 187.528 70.035 186.658 69.525C185.788 69.015 184.378 68.445 182.428 67.815C180.358 67.125 178.678 66.465 177.388 65.835C176.128 65.175 175.018 64.23 174.058 63C173.128 61.74 172.663 60.105 172.663 58.095C172.663 56.055 173.173 54.315 174.193 52.875C175.213 51.405 176.623 50.295 178.423 49.545C180.223 48.795 182.263 48.42 184.543 48.42C188.233 48.42 191.173 49.29 193.363 51.03C195.583 52.74 196.768 55.155 196.918 58.275H187.333C187.303 57.315 187.003 56.595 186.433 56.115C185.893 55.635 185.188 55.395 184.318 55.395C183.658 55.395 183.118 55.59 182.698 55.98C182.278 56.37 182.068 56.925 182.068 57.645C182.068 58.245 182.293 58.77 182.743 59.22C183.223 59.64 183.808 60.015 184.498 60.345C185.188 60.645 186.208 61.035 187.558 61.515C189.568 62.205 191.218 62.895 192.508 63.585C193.828 64.245 194.953 65.19 195.883 66.42C196.843 67.62 197.323 69.15 197.323 71.01C197.323 72.9 196.843 74.595 195.883 76.095C194.953 77.595 193.588 78.78 191.788 79.65C190.018 80.52 187.918 80.955 185.488 80.955ZM210.243 48.915V80.64H201.423V48.915H210.243ZM224.086 73.89H233.941V80.64H215.266V48.915H224.086V73.89Z" fill="#179B5B"/>
</svg>
