<svg width="297" height="33" viewBox="0 0 297 33" fill="none" xmlns="http://www.w3.org/2000/svg">
<path d="M45.9899 0.494969L38.2049 32.22H27.3599L22.9949 12.78L18.5399 32.22H7.69491L-8.78591e-05 0.494969H9.53991L13.2299 22.185L18.2249 0.494969H27.8999L32.7599 22.005L36.4499 0.494969H45.9899ZM64.9426 32.535C61.9726 32.535 59.2426 31.845 56.7526 30.465C54.2626 29.055 52.2826 27.12 50.8126 24.66C49.3726 22.17 48.6526 19.365 48.6526 16.245C48.6526 13.125 49.3726 10.335 50.8126 7.87497C52.2826 5.38497 54.2626 3.44997 56.7526 2.06997C59.2426 0.68997 61.9726 -3.02196e-05 64.9426 -3.02196e-05C67.9426 -3.02196e-05 70.6726 0.68997 73.1326 2.06997C75.6226 3.44997 77.5876 5.38497 79.0276 7.87497C80.4676 10.335 81.1876 13.125 81.1876 16.245C81.1876 19.365 80.4676 22.17 79.0276 24.66C77.5876 27.12 75.6226 29.055 73.1326 30.465C70.6426 31.845 67.9126 32.535 64.9426 32.535ZM64.9426 24.345C67.1926 24.345 68.9626 23.61 70.2526 22.14C71.5726 20.67 72.2326 18.705 72.2326 16.245C72.2326 13.725 71.5726 11.745 70.2526 10.305C68.9626 8.83497 67.1926 8.09997 64.9426 8.09997C62.6626 8.09997 60.8776 8.83497 59.5876 10.305C58.2976 11.745 57.6526 13.725 57.6526 16.245C57.6526 18.735 58.2976 20.715 59.5876 22.185C60.8776 23.625 62.6626 24.345 64.9426 24.345ZM101.218 32.22L94.9176 20.52H93.9726V32.22H85.1526V0.494969H99.0576C101.608 0.494969 103.768 0.944969 105.538 1.84497C107.308 2.71497 108.643 3.92997 109.543 5.48997C110.443 7.01997 110.893 8.74497 110.893 10.665C110.893 12.825 110.293 14.73 109.093 16.38C107.923 18 106.198 19.155 103.918 19.845L111.073 32.22H101.218ZM93.9726 14.49H98.3376C99.5376 14.49 100.438 14.205 101.038 13.635C101.638 13.065 101.938 12.24 101.938 11.16C101.938 10.14 101.623 9.34497 100.993 8.77497C100.393 8.17497 99.5076 7.87497 98.3376 7.87497H93.9726V14.49ZM133.669 32.22L123.724 18.315V32.22H114.904V0.494969H123.724V14.175L133.579 0.494969H143.749L132.094 15.885L144.334 32.22H133.669ZM159.525 32.535C155.835 32.535 152.805 31.665 150.435 29.925C148.065 28.155 146.79 25.635 146.61 22.365H156.015C156.105 23.475 156.435 24.285 157.005 24.795C157.575 25.305 158.31 25.56 159.21 25.56C160.02 25.56 160.68 25.365 161.19 24.975C161.73 24.555 162 23.985 162 23.265C162 22.335 161.565 21.615 160.695 21.105C159.825 20.595 158.415 20.025 156.465 19.395C154.395 18.705 152.715 18.045 151.425 17.415C150.165 16.755 149.055 15.81 148.095 14.58C147.165 13.32 146.7 11.685 146.7 9.67497C146.7 7.63497 147.21 5.89497 148.23 4.45497C149.25 2.98497 150.66 1.87497 152.46 1.12497C154.26 0.374969 156.3 -3.02196e-05 158.58 -3.02196e-05C162.27 -3.02196e-05 165.21 0.869969 167.4 2.60997C169.62 4.31997 170.805 6.73497 170.955 9.85497H161.37C161.34 8.89497 161.04 8.17497 160.47 7.69497C159.93 7.21497 159.225 6.97497 158.355 6.97497C157.695 6.97497 157.155 7.16997 156.735 7.55997C156.315 7.94997 156.105 8.50497 156.105 9.22497C156.105 9.82497 156.33 10.35 156.78 10.8C157.26 11.22 157.845 11.595 158.535 11.925C159.225 12.225 160.245 12.615 161.595 13.095C163.605 13.785 165.255 14.475 166.545 15.165C167.865 15.825 168.99 16.77 169.92 18C170.88 19.2 171.36 20.73 171.36 22.59C171.36 24.48 170.88 26.175 169.92 27.675C168.99 29.175 167.625 30.36 165.825 31.23C164.055 32.1 161.955 32.535 159.525 32.535ZM203.855 0.494969V32.22H195.035V19.485H184.28V32.22H175.46V0.494969H184.28V12.42H195.035V0.494969H203.855ZM224.113 32.535C221.143 32.535 218.413 31.845 215.923 30.465C213.433 29.055 211.453 27.12 209.983 24.66C208.543 22.17 207.823 19.365 207.823 16.245C207.823 13.125 208.543 10.335 209.983 7.87497C211.453 5.38497 213.433 3.44997 215.923 2.06997C218.413 0.68997 221.143 -3.02196e-05 224.113 -3.02196e-05C227.113 -3.02196e-05 229.843 0.68997 232.303 2.06997C234.793 3.44997 236.758 5.38497 238.198 7.87497C239.638 10.335 240.358 13.125 240.358 16.245C240.358 19.365 239.638 22.17 238.198 24.66C236.758 27.12 234.793 29.055 232.303 30.465C229.813 31.845 227.083 32.535 224.113 32.535ZM224.113 24.345C226.363 24.345 228.133 23.61 229.423 22.14C230.743 20.67 231.403 18.705 231.403 16.245C231.403 13.725 230.743 11.745 229.423 10.305C228.133 8.83497 226.363 8.09997 224.113 8.09997C221.833 8.09997 220.048 8.83497 218.758 10.305C217.468 11.745 216.823 13.725 216.823 16.245C216.823 18.735 217.468 20.715 218.758 22.185C220.048 23.625 221.833 24.345 224.113 24.345ZM269.387 11.07C269.387 12.99 268.937 14.745 268.037 16.335C267.167 17.895 265.832 19.155 264.032 20.115C262.262 21.045 260.087 21.51 257.507 21.51H253.142V32.22H244.322V0.494969H257.507C260.057 0.494969 262.217 0.944969 263.987 1.84497C265.787 2.74497 267.137 3.98997 268.037 5.57997C268.937 7.16997 269.387 8.99997 269.387 11.07ZM256.652 14.49C259.142 14.49 260.387 13.35 260.387 11.07C260.387 8.75997 259.142 7.60497 256.652 7.60497H253.142V14.49H256.652ZM284.901 32.535C281.211 32.535 278.181 31.665 275.811 29.925C273.441 28.155 272.166 25.635 271.986 22.365H281.391C281.481 23.475 281.811 24.285 282.381 24.795C282.951 25.305 283.686 25.56 284.586 25.56C285.396 25.56 286.056 25.365 286.566 24.975C287.106 24.555 287.376 23.985 287.376 23.265C287.376 22.335 286.941 21.615 286.071 21.105C285.201 20.595 283.791 20.025 281.841 19.395C279.771 18.705 278.091 18.045 276.801 17.415C275.541 16.755 274.431 15.81 273.471 14.58C272.541 13.32 272.076 11.685 272.076 9.67497C272.076 7.63497 272.586 5.89497 273.606 4.45497C274.626 2.98497 276.036 1.87497 277.836 1.12497C279.636 0.374969 281.676 -3.02196e-05 283.956 -3.02196e-05C287.646 -3.02196e-05 290.586 0.869969 292.776 2.60997C294.996 4.31997 296.181 6.73497 296.331 9.85497H286.746C286.716 8.89497 286.416 8.17497 285.846 7.69497C285.306 7.21497 284.601 6.97497 283.731 6.97497C283.071 6.97497 282.531 7.16997 282.111 7.55997C281.691 7.94997 281.481 8.50497 281.481 9.22497C281.481 9.82497 281.706 10.35 282.156 10.8C282.636 11.22 283.221 11.595 283.911 11.925C284.601 12.225 285.621 12.615 286.971 13.095C288.981 13.785 290.631 14.475 291.921 15.165C293.241 15.825 294.366 16.77 295.296 18C296.256 19.2 296.736 20.73 296.736 22.59C296.736 24.48 296.256 26.175 295.296 27.675C294.366 29.175 293.001 30.36 291.201 31.23C289.431 32.1 287.331 32.535 284.901 32.535Z" fill="#E42D84"/>
</svg>
